<svg width="182" height="182" viewBox="0 0 182 182" fill="none" xmlns="http://www.w3.org/2000/svg">
<rect opacity="0.1" x="2.4397" y="2.33337" width="178.003" height="178.003" rx="89.0015" stroke="#FAEDD2"/>
<rect opacity="0.3" x="14.8705" y="14.7642" width="153.141" height="153.141" rx="76.5707" stroke="#FAEDD2"/>
<rect opacity="0.6" x="27.3013" y="27.1948" width="128.28" height="128.28" rx="64.14" stroke="#FAEDD2"/>
<rect x="39.7321" y="39.6256" width="103.418" height="103.418" rx="51.7092" stroke="#FAEDD2"/>
<rect x="49.3828" y="49.682" width="83.25" height="83.25" rx="41.625" transform="rotate(0.32 49.3828 49.682)" fill="#FAEDD2"/>
<path d="M67.5247 94.3556L67.5247 94.2206C67.5341 93.34 67.6217 92.6392 67.7874 92.1184C67.9579 91.5975 68.1994 91.1761 68.5119 90.8542C68.8244 90.5322 69.2008 90.2386 69.6411 89.9735C69.9252 89.7936 70.1809 89.5923 70.4082 89.3698C70.6355 89.1472 70.8154 88.8916 70.948 88.6027C71.0805 88.3139 71.1468 87.9943 71.1468 87.6439C71.1468 87.2225 71.0474 86.8579 70.8485 86.5502C70.6497 86.2424 70.3845 86.0057 70.0531 85.84C69.7264 85.6695 69.3618 85.5843 68.9593 85.5843C68.5947 85.5843 68.2467 85.66 67.9153 85.8115C67.5838 85.9631 67.3092 86.1998 67.0914 86.5218C66.8736 86.839 66.7481 87.2486 66.715 87.7505L64.5559 87.7505C64.5891 86.8982 64.8045 86.1785 65.2022 85.5914C65.5999 84.9995 66.1255 84.5521 66.7789 84.249C67.4371 83.946 68.1639 83.7945 68.9593 83.7945C69.8305 83.7945 70.5928 83.9579 71.2462 84.2846C71.8997 84.6065 72.4063 85.0587 72.7661 85.6411C73.1307 86.2187 73.313 86.8935 73.313 87.6652C73.313 88.1955 73.2302 88.6738 73.0644 89.0999C72.8987 89.5213 72.662 89.8977 72.3542 90.2292C72.0512 90.5606 71.6866 90.8542 71.2605 91.1098C70.858 91.3608 70.5313 91.6212 70.2803 91.8911C70.0341 92.161 69.8542 92.4806 69.7406 92.8499C69.6269 93.2192 69.5654 93.6761 69.5559 94.2206L69.5559 94.3556L67.5247 94.3556ZM68.5971 98.6738C68.2088 98.6738 67.875 98.5365 67.5957 98.2618C67.3163 97.9825 67.1766 97.6463 67.1766 97.2533C67.1766 96.865 67.3163 96.5336 67.5957 96.259C67.875 95.9796 68.2088 95.84 68.5971 95.84C68.9806 95.84 69.3121 95.9796 69.5914 96.259C69.8755 96.5336 70.0176 96.865 70.0176 97.2533C70.0176 97.5137 69.9513 97.7528 69.8187 97.9706C69.6909 98.1837 69.5204 98.3542 69.3073 98.482C69.0943 98.6098 68.8575 98.6738 68.5971 98.6738ZM81.2498 83.3115L76.5623 100.726L74.666 100.726L79.3535 83.3115L81.2498 83.3115ZM88.5438 83.9934L88.5438 98.5388L86.3421 98.5388L86.3421 86.1951L86.2569 86.1951L82.7768 88.4678L82.7768 86.3655L86.4061 83.9934L88.5438 83.9934ZM97.5424 98.7803C96.4203 98.7756 95.4614 98.4796 94.666 97.8925C93.8705 97.3054 93.2621 96.4508 92.8407 95.3286C92.4193 94.2064 92.2086 92.8546 92.2086 91.2732C92.2086 89.6965 92.4193 88.3494 92.8407 87.232C93.2668 86.1146 93.8776 85.2623 94.6731 84.6752C95.4733 84.0881 96.4297 83.7945 97.5424 83.7945C98.6551 83.7945 99.6092 84.0904 100.405 84.6823C101.2 85.2694 101.809 86.1217 102.23 87.2391C102.656 88.3518 102.869 89.6965 102.869 91.2732C102.869 92.8594 102.658 94.2135 102.237 95.3357C101.816 96.4531 101.207 97.3078 100.412 97.8996C99.6163 98.4867 98.6598 98.7803 97.5424 98.7803ZM97.5424 96.884C98.5273 96.884 99.2967 96.4034 99.8507 95.4422C100.409 94.4811 100.689 93.0914 100.689 91.2732C100.689 90.0658 100.561 89.0454 100.305 88.2121C100.054 87.374 99.692 86.7396 99.2186 86.3087C98.7498 85.8731 98.1911 85.6553 97.5424 85.6553C96.5623 85.6553 95.7929 86.1382 95.2342 87.1042C94.6755 88.0701 94.3937 89.4597 94.389 91.2732C94.389 92.4853 94.5145 93.5104 94.7654 94.3485C95.0211 95.1818 95.3833 95.8139 95.8521 96.2448C96.3208 96.6709 96.8843 96.884 97.5424 96.884ZM110.453 98.7803C109.33 98.7756 108.372 98.4796 107.576 97.8925C106.781 97.3054 106.172 96.4508 105.751 95.3286C105.329 94.2064 105.119 92.8546 105.119 91.2732C105.119 89.6965 105.329 88.3494 105.751 87.232C106.177 86.1146 106.788 85.2623 107.583 84.6752C108.383 84.0881 109.34 83.7945 110.453 83.7945C111.565 83.7945 112.519 84.0904 113.315 84.6823C114.11 85.2694 114.719 86.1217 115.14 87.2391C115.566 88.3518 115.779 89.6965 115.779 91.2732C115.779 92.8594 115.569 94.2135 115.147 95.3357C114.726 96.4531 114.117 97.3078 113.322 97.8996C112.526 98.4867 111.57 98.7803 110.453 98.7803ZM110.453 96.884C111.437 96.884 112.207 96.4034 112.761 95.4422C113.32 94.4811 113.599 93.0914 113.599 91.2732C113.599 90.0658 113.471 89.0454 113.215 88.2121C112.964 87.374 112.602 86.7396 112.129 86.3087C111.66 85.8731 111.101 85.6553 110.453 85.6553C109.472 85.6553 108.703 86.1382 108.144 87.1042C107.586 88.0701 107.304 89.4597 107.299 91.2732C107.299 92.4853 107.425 93.5104 107.676 94.3485C107.931 95.1818 108.293 95.8139 108.762 96.2448C109.231 96.6709 109.794 96.884 110.453 96.884Z" fill="#060D84"/>
</svg>
