<svg width="16" height="16" viewBox="0 0 16 16" fill="none" xmlns="http://www.w3.org/2000/svg">
<path fill-rule="evenodd" clip-rule="evenodd" d="M6.25 4C6.25 3.80109 6.32902 3.61032 6.46967 3.46967C6.61032 3.32902 6.80109 3.25 7 3.25H14C14.1989 3.25 14.3897 3.32902 14.5303 3.46967C14.671 3.61032 14.75 3.80109 14.75 4V5C14.75 5.19891 14.671 5.38968 14.5303 5.53033C14.3897 5.67098 14.1989 5.75 14 5.75C13.8011 5.75 13.6103 5.67098 13.4697 5.53033C13.329 5.38968 13.25 5.19891 13.25 5V4.75H11.25V11.25H11.5C11.6989 11.25 11.8897 11.329 12.0303 11.4697C12.171 11.6103 12.25 11.8011 12.25 12C12.25 12.1989 12.171 12.3897 12.0303 12.5303C11.8897 12.671 11.6989 12.75 11.5 12.75H9.5C9.30109 12.75 9.11032 12.671 8.96967 12.5303C8.82902 12.3897 8.75 12.1989 8.75 12C8.75 11.8011 8.82902 11.6103 8.96967 11.4697C9.11032 11.329 9.30109 11.25 9.5 11.25H9.75V4.75H7.75V5C7.75 5.19891 7.67098 5.38968 7.53033 5.53033C7.38968 5.67098 7.19891 5.75 7 5.75C6.80109 5.75 6.61032 5.67098 6.46967 5.53033C6.32902 5.38968 6.25 5.19891 6.25 5V4Z" fill="#555555"/>
<path fill-rule="evenodd" clip-rule="evenodd" d="M1.75 8C1.75 7.80109 1.82902 7.61032 1.96967 7.46967C2.11032 7.32902 2.30109 7.25 2.5 7.25H6.5C6.69891 7.25 6.88968 7.32902 7.03033 7.46967C7.17098 7.61032 7.25 7.80109 7.25 8C7.25 8.19891 7.17098 8.38968 7.03033 8.53033C6.88968 8.67098 6.69891 8.75 6.5 8.75H5.25V12C5.25 12.1989 5.17098 12.3897 5.03033 12.5303C4.88968 12.671 4.69891 12.75 4.5 12.75C4.30109 12.75 4.11032 12.671 3.96967 12.5303C3.82902 12.3897 3.75 12.1989 3.75 12V8.75H2.5C2.30109 8.75 2.11032 8.67098 1.96967 8.53033C1.82902 8.38968 1.75 8.19891 1.75 8Z" fill="#555555"/>
</svg>
