<svg width="1440" height="240" viewBox="0 0 1440 240" fill="none" xmlns="http://www.w3.org/2000/svg">
<g clip-path="url(#clip0_7_479)">
<g opacity="0.1">
<path d="M31.7625 52.6614C31.7625 49.9426 31.1062 47.552 29.7937 45.4896C28.5749 43.3333 26.8875 41.552 24.7312 40.1458C22.5749 38.7396 20.0906 37.6614 17.278 36.9114C14.4656 36.1614 11.4656 35.7864 8.27808 35.7864C7.52808 35.7864 7.15308 35.4114 7.15308 34.6614V29.177C7.15308 28.427 7.4812 28.052 8.13745 28.052H97.0125C97.4812 28.052 97.7625 28.1926 97.8562 28.4739C98.0437 28.7552 98.1375 28.9896 98.1375 29.177V34.6614C98.1375 34.8489 98.0437 35.0833 97.8562 35.3646C97.7625 35.6458 97.4812 35.7864 97.0125 35.7864C94.2 35.7864 91.2937 35.9739 88.2937 36.3489C85.3875 36.7239 82.6687 37.5676 80.1375 38.8802C77.7 40.1926 75.6843 42.1146 74.0906 44.6458C72.5906 47.0833 71.8406 50.4114 71.8406 54.6302V153.208C71.8406 171.959 76.6219 186.49 86.1843 196.802C95.7469 207.02 110.044 212.13 129.076 212.13C136.95 212.13 144.497 211.052 151.716 208.896C158.934 206.646 165.31 203.224 170.84 198.63C176.372 194.036 180.778 188.177 184.06 181.052C187.34 173.927 188.981 165.443 188.981 155.599V68.2707C188.981 65.0833 188.84 61.802 188.56 58.427C188.372 55.052 187.622 51.8646 186.31 48.8646C184.997 45.8646 182.934 43.2864 180.122 41.1302C177.31 38.8802 173.326 37.3333 168.169 36.4896C165.826 36.1146 163.856 35.927 162.263 35.927C160.763 35.8333 159.778 35.7864 159.31 35.7864C158.56 35.7864 158.184 35.4114 158.184 34.6614V29.177C158.184 28.427 158.56 28.052 159.31 28.052H232.716C233.184 28.052 233.466 28.1926 233.56 28.4739C233.747 28.7552 233.84 28.9896 233.84 29.177V34.6614C233.84 34.8489 233.747 35.0833 233.56 35.3646C233.372 35.6458 233.09 35.7864 232.716 35.7864C229.34 35.7864 226.34 36.0676 223.716 36.6302C221.184 37.0989 219.263 37.6146 217.95 38.177C216.356 38.8333 214.903 39.8646 213.59 41.2707C212.278 42.5833 211.153 44.0364 210.216 45.6302C209.372 47.1302 208.716 48.7239 208.247 50.4114C207.778 52.0052 207.544 53.4114 207.544 54.6302V144.63C207.544 157.849 205.81 169.756 202.34 180.349C198.872 190.849 193.622 199.802 186.59 207.208C179.653 214.52 170.887 220.193 160.294 224.224C149.7 228.161 137.326 230.13 123.169 230.13C116.419 230.13 109.434 229.614 102.216 228.583C95.0906 227.552 88.1062 225.911 81.2625 223.661C74.5125 221.411 68.1375 218.506 62.1375 214.943C56.1375 211.38 50.8875 207.114 46.3875 202.146C41.8875 197.177 38.3249 191.459 35.6999 184.99C33.0749 178.52 31.7625 171.208 31.7625 163.052V52.6614ZM310.331 199.614C310.331 202.802 310.8 205.474 311.737 207.63C312.769 209.786 314.174 211.52 315.956 212.833C317.831 214.146 320.081 215.083 322.706 215.646C325.424 216.208 328.424 216.49 331.706 216.49C332.456 216.49 332.831 216.864 332.831 217.614V225.208C332.831 225.49 332.784 225.77 332.69 226.052C332.597 226.24 332.269 226.333 331.706 226.333H248.597C248.128 226.333 247.8 226.193 247.613 225.911C247.519 225.63 247.472 225.396 247.472 225.208V217.614C247.472 217.427 247.519 217.193 247.613 216.911C247.8 216.63 248.128 216.49 248.597 216.49C251.878 216.49 254.831 216.302 257.456 215.927C260.174 215.459 262.472 214.52 264.347 213.114C266.222 211.708 267.674 209.693 268.706 207.067C269.737 204.443 270.253 200.88 270.253 196.38V54.7707C270.253 51.5833 269.737 48.9114 268.706 46.7552C267.769 44.5989 266.363 42.8646 264.487 41.552C262.706 40.2396 260.456 39.302 257.737 38.7396C255.113 38.177 252.16 37.8958 248.878 37.8958C248.128 37.8958 247.753 37.5207 247.753 36.7707V29.177C247.753 28.427 248.128 28.052 248.878 28.052H331.987C332.456 28.052 332.737 28.1926 332.831 28.4739C333.019 28.7552 333.113 28.9896 333.113 29.177V36.7707C333.113 36.9583 333.019 37.1926 332.831 37.4739C332.737 37.7552 332.456 37.8958 331.987 37.8958C328.706 37.8958 325.706 38.1302 322.987 38.5989C320.363 38.9739 318.113 39.8646 316.237 41.2707C314.363 42.677 312.91 44.6926 311.878 47.3176C310.847 49.9426 310.331 53.5052 310.331 58.0052V199.614Z" fill="#E6E3C9" fill-opacity="0.5"/>
<g filter="url(#filter0_ii_7_479)">
<mask id="mask0_7_479" style="mask-type:alpha" maskUnits="userSpaceOnUse" x="348" y="34" width="192" height="193">
<path fill-rule="evenodd" clip-rule="evenodd" d="M446.984 115.76L444 34.3333L441.04 115.105L397.674 84.0059L428.774 127.373L348 130.333L429.427 133.318L397.674 177.594L441.073 146.471L444 226.333L446.951 145.816L491.262 177.594L459.485 133.284L540 130.333L460.138 127.406L491.262 84.0059L446.984 115.76Z" fill="white"/>
</mask>
<g mask="url(#mask0_7_479)">
<path d="M540 34.3333H348V226.333H540V34.3333Z" fill="white" fill-opacity="0.5"/>
</g>
</g>
<path d="M551.484 219.02C551.484 218.927 551.531 218.74 551.626 218.459C551.719 218.083 552.047 217.896 552.61 217.896C553.172 217.896 554.063 217.802 555.281 217.614C556.5 217.427 557.766 217.24 559.078 217.052C560.39 216.864 561.61 216.677 562.734 216.49C563.86 216.208 564.656 216.02 565.126 215.927C570.469 214.708 574.172 212.74 576.234 210.02C578.39 207.208 579.469 203.74 579.469 199.614V56.7395C579.469 52.052 578.484 48.3489 576.516 45.6302C574.547 42.9113 572.25 40.8957 569.626 39.5833C567.094 38.177 564.61 37.3333 562.172 37.052C559.828 36.677 558.234 36.4895 557.39 36.4895H552.047C551.578 36.4895 551.25 36.3489 551.063 36.0676C550.969 35.7863 550.922 35.552 550.922 35.3645V29.177C550.922 28.9895 550.969 28.802 551.063 28.6145C551.156 28.3333 551.484 28.1458 552.047 28.052C552.14 28.052 552.328 28.052 552.61 28.052C552.984 28.052 553.687 28.052 554.719 28.052C555.75 27.9583 557.25 27.9113 559.219 27.9113C561.187 27.8176 563.953 27.7239 567.516 27.6302C572.672 27.5363 578.156 27.3957 583.969 27.2083C589.874 27.0208 595.828 26.8333 601.828 26.6458C607.828 26.4583 613.734 26.3176 619.547 26.2239C625.453 26.0363 630.984 25.9426 636.14 25.9426H650.344C657.75 25.9426 665.297 27.2083 672.984 29.7395C680.672 32.2707 687.61 36.0208 693.797 40.9895C700.078 45.8645 705.187 51.9583 709.126 59.2707C713.156 66.5833 715.172 75.0207 715.172 84.5833C715.172 90.7707 714.328 96.302 712.64 101.177C710.953 105.958 708.61 110.224 705.61 113.974C702.703 117.63 699.187 120.864 695.063 123.677C691.031 126.49 686.626 128.974 681.844 131.13L724.453 198.63C728.11 204.443 732.374 209.74 737.25 214.52C742.126 219.208 747.797 222.49 754.266 224.364C755.016 224.552 755.437 224.833 755.531 225.208C755.719 225.49 755.813 225.864 755.813 226.333C755.813 227.74 755.437 228.677 754.687 229.146C753.937 229.614 752.766 229.849 751.172 229.849C747.234 229.849 742.734 229.567 737.672 229.006C732.703 228.536 727.687 227.693 722.626 226.474C717.563 225.349 712.734 223.849 708.14 221.974C703.64 220.099 699.844 217.756 696.75 214.943C693.75 212.317 690.703 208.99 687.61 204.959C684.516 200.927 681.374 196.614 678.187 192.02C675.094 187.333 672 182.506 668.906 177.536C665.906 172.474 662.953 167.552 660.047 162.77C657.234 157.99 654.516 153.536 651.89 149.411C649.266 145.286 646.874 141.77 644.719 138.864L622.781 137.317C622.687 137.317 622.313 137.317 621.656 137.317C621 137.317 620.531 137.411 620.25 137.599C619.969 137.786 619.781 137.974 619.687 138.161C619.594 138.349 619.547 138.724 619.547 139.286V199.193C619.547 201.724 619.874 203.927 620.531 205.802C621.187 207.677 622.266 209.317 623.766 210.724C625.36 212.036 627.374 213.114 629.813 213.959C632.344 214.802 635.39 215.459 638.953 215.927C639.516 216.02 640.313 216.161 641.344 216.349C642.469 216.536 643.64 216.77 644.86 217.052C646.172 217.24 647.437 217.427 648.656 217.614C649.874 217.802 650.906 217.896 651.75 217.896C652.313 217.896 652.64 218.036 652.734 218.317C652.828 218.599 652.874 218.833 652.874 219.02V225.208C652.874 225.396 652.781 225.63 652.594 225.911C652.5 226.193 652.219 226.333 651.75 226.333H552.61C552.14 226.333 551.813 225.677 551.626 224.364C551.531 223.052 551.484 221.833 551.484 220.708V219.02ZM619.828 123.256C619.922 124.006 620.11 124.708 620.39 125.364C620.766 125.927 621.469 126.256 622.5 126.349C623.344 126.443 624.61 126.63 626.297 126.911C627.984 127.099 630.328 127.193 633.328 127.193C641.578 127.193 648.374 125.927 653.719 123.396C659.063 120.864 663.281 117.49 666.374 113.27C669.469 108.959 671.578 104.036 672.703 98.5052C673.922 92.9739 674.531 87.2083 674.531 81.2083C674.531 74.927 673.547 68.9739 671.578 63.3489C669.61 57.7239 666.844 52.8489 663.281 48.7239C659.813 44.5989 655.594 41.3176 650.626 38.8802C645.75 36.4426 640.36 35.2239 634.453 35.2239C633.14 35.2239 632.11 35.2707 631.36 35.3645C630.61 35.3645 629.86 35.4113 629.11 35.5052C628.453 35.5052 627.656 35.552 626.719 35.6458C625.874 35.6458 624.656 35.6926 623.063 35.7863C622.5 35.7863 621.75 35.927 620.813 36.2083C619.969 36.3957 619.547 37.0052 619.547 38.0363V119.036L619.828 123.256ZM765.787 160.661C765.787 151.849 767.71 143.411 771.553 135.349C775.49 127.286 780.74 120.161 787.303 113.974C793.866 107.786 801.506 102.865 810.224 99.2083C818.944 95.552 828.131 93.7239 837.787 93.7239C847.913 93.7239 857.522 95.4582 866.616 98.927C875.71 102.396 883.678 107.177 890.522 113.27C897.46 119.27 902.944 126.396 906.974 134.646C911.006 142.802 913.022 151.661 913.022 161.224C913.022 170.974 911.147 180.067 907.397 188.506C903.74 196.849 898.631 204.114 892.069 210.302C885.506 216.49 877.678 221.364 868.584 224.927C859.584 228.396 849.74 230.13 839.053 230.13C828.46 230.13 818.663 228.349 809.663 224.786C800.756 221.13 793.022 216.208 786.46 210.02C779.99 203.74 774.928 196.38 771.272 187.943C767.616 179.506 765.787 170.411 765.787 160.661ZM801.787 151.802C801.787 156.864 802.163 162.114 802.913 167.552C803.663 172.896 804.787 178.146 806.287 183.302C807.787 188.364 809.663 193.146 811.913 197.646C814.256 202.146 817.022 206.13 820.21 209.599C823.397 212.974 827.006 215.646 831.037 217.614C835.069 219.583 839.616 220.567 844.678 220.567C850.21 220.567 854.944 219.161 858.881 216.349C862.913 213.443 866.194 209.693 868.724 205.099C871.35 200.506 873.272 195.349 874.49 189.63C875.71 183.911 876.319 178.193 876.319 172.474C876.319 167.88 875.897 163.052 875.053 157.99C874.21 152.833 872.944 147.77 871.256 142.802C869.569 137.74 867.506 132.911 865.069 128.317C862.631 123.724 859.772 119.693 856.49 116.224C853.303 112.661 849.694 109.849 845.663 107.786C841.724 105.724 837.413 104.693 832.724 104.693C827.474 104.693 822.881 106.146 818.944 109.052C815.1 111.864 811.913 115.567 809.381 120.161C806.85 124.661 804.928 129.724 803.616 135.349C802.397 140.88 801.787 146.364 801.787 151.802ZM963.356 313.52C961.669 313.52 960.028 313.24 958.434 312.677C956.84 312.114 955.387 311.317 954.076 310.286C952.763 309.256 951.684 308.036 950.84 306.63C950.09 305.317 949.716 303.817 949.716 302.13C949.716 299.506 950.372 297.49 951.684 296.083C953.09 294.677 954.778 293.506 956.747 292.567C958.716 291.63 960.778 290.833 962.934 290.177C965.09 289.52 966.919 288.63 968.419 287.506C969.45 286.756 970.528 285.864 971.653 284.833C972.872 283.896 973.95 282.349 974.887 280.193L993.31 237.302L939.45 124.943C937.856 120.63 935.56 116.88 932.56 113.693C929.56 110.411 925.903 108.067 921.59 106.661C920.934 106.474 920.137 106.286 919.2 106.099C918.263 105.818 917.372 105.49 916.528 105.115C915.59 104.74 914.84 104.271 914.278 103.708C913.622 103.052 913.294 102.208 913.294 101.177C913.294 100.24 913.576 99.302 914.137 98.3645C914.7 97.427 915.544 96.9583 916.669 96.9583H990.919C991.481 96.9583 991.81 97.5207 991.903 98.6458C991.997 99.7707 992.044 100.474 992.044 100.755C992.044 102.068 991.481 103.005 990.356 103.568C989.326 104.036 988.013 104.365 986.419 104.552C984.826 104.74 983.09 104.88 981.216 104.974C979.434 105.068 977.747 105.396 976.153 105.958C974.56 106.52 973.2 107.411 972.076 108.63C971.044 109.849 970.528 111.677 970.528 114.114C970.528 114.396 970.716 115.006 971.09 115.943C971.56 116.786 971.794 117.302 971.794 117.49L1006.67 192.161C1006.86 192.63 1007.18 193.333 1007.65 194.27C1008.22 195.114 1008.83 195.536 1009.48 195.536C1009.86 195.536 1010.23 195.349 1010.61 194.974C1010.98 194.506 1011.31 193.99 1011.59 193.427C1011.87 192.864 1012.11 192.349 1012.29 191.88C1012.48 191.317 1012.62 190.943 1012.72 190.756C1017.03 179.693 1020.64 170.317 1023.54 162.63C1026.54 154.943 1028.98 148.567 1030.86 143.506C1032.83 138.443 1034.28 134.506 1035.22 131.693C1036.25 128.786 1036.95 126.583 1037.33 125.083C1037.79 123.49 1038.08 122.364 1038.17 121.708C1038.26 120.959 1038.31 120.256 1038.31 119.599C1038.5 116.317 1037.51 113.599 1035.36 111.443C1033.2 109.286 1030.62 107.693 1027.62 106.661C1026.78 106.38 1025.7 106.193 1024.39 106.099C1023.17 105.911 1021.95 105.677 1020.73 105.396C1019.61 105.021 1018.58 104.505 1017.64 103.849C1016.79 103.099 1016.37 102.068 1016.37 100.755C1016.37 100.005 1016.7 99.2083 1017.36 98.3645C1018.01 97.427 1018.72 96.9583 1019.47 96.9583H1075.58C1076.33 96.9583 1076.75 97.5207 1076.84 98.6458C1077.03 99.677 1077.12 100.427 1077.12 100.896C1077.12 101.552 1077.03 102.115 1076.84 102.583C1076.65 103.052 1076.18 103.474 1075.43 103.849C1074.78 104.224 1073.79 104.599 1072.48 104.974C1071.26 105.349 1069.62 105.724 1067.56 106.099C1065.59 106.474 1063.81 107.459 1062.22 109.052C1060.62 110.552 1059.17 112.333 1057.86 114.396C1056.64 116.364 1055.51 118.474 1054.48 120.724C1053.54 122.974 1052.7 124.99 1051.95 126.77L980.653 303.396C979.903 305.177 978.826 306.677 977.419 307.896C976.013 309.208 974.466 310.286 972.778 311.13C971.09 311.974 969.403 312.583 967.716 312.959C966.028 313.333 964.576 313.52 963.356 313.52ZM1138.14 223.52C1135.05 225.677 1131.39 227.364 1127.18 228.583C1122.96 229.802 1118.74 230.411 1114.52 230.411C1103.08 230.411 1094.36 227.833 1088.36 222.677C1082.46 217.52 1079.5 210.536 1079.5 201.724C1079.5 196.661 1080.63 192.302 1082.88 188.646C1085.22 184.99 1088.64 181.756 1093.14 178.943C1097.64 176.13 1103.18 173.599 1109.74 171.349C1116.39 169.006 1124.08 166.708 1132.8 164.459C1137.49 163.24 1141.24 161.927 1144.05 160.52C1146.96 159.114 1149.63 157.756 1152.07 156.443C1153.66 155.599 1154.55 154.849 1154.74 154.193C1155.02 153.536 1155.16 152.927 1155.16 152.364V127.896C1155.16 124.802 1154.69 121.943 1153.75 119.317C1152.91 116.599 1151.6 114.256 1149.82 112.286C1148.03 110.317 1145.88 108.77 1143.35 107.646C1140.82 106.52 1137.96 105.958 1134.77 105.958C1132.05 105.958 1129.52 106.427 1127.18 107.364C1124.83 108.302 1122.82 109.661 1121.13 111.443C1119.44 113.224 1118.08 115.333 1117.05 117.77C1116.11 120.208 1115.64 122.974 1115.64 126.067C1115.64 126.349 1115.64 126.77 1115.64 127.333C1115.74 127.896 1115.83 128.506 1115.93 129.161C1116.02 129.724 1116.11 130.24 1116.21 130.708C1116.3 131.177 1116.35 131.459 1116.35 131.552C1116.25 131.74 1115.46 132.114 1113.96 132.677C1112.55 133.24 1110.77 133.896 1108.61 134.646C1106.55 135.302 1104.25 136.006 1101.72 136.756C1099.19 137.411 1096.75 138.067 1094.41 138.724C1092.16 139.38 1090.14 139.99 1088.36 140.552C1086.68 141.02 1085.5 141.302 1084.85 141.396C1083.82 141.396 1083.16 140.88 1082.88 139.849C1082.69 138.724 1082.6 137.646 1082.6 136.614C1082.6 131.177 1084.24 125.88 1087.52 120.724C1090.8 115.567 1095.16 111.02 1100.6 107.083C1106.13 103.052 1112.46 99.8176 1119.58 97.3802C1126.71 94.9426 1134.07 93.7239 1141.66 93.7239C1148.41 93.7239 1154.46 94.6145 1159.8 96.3958C1165.14 98.0833 1169.69 100.474 1173.44 103.568C1177.19 106.567 1180.05 110.083 1182.02 114.114C1183.99 118.052 1184.97 122.27 1184.97 126.77V193.849C1184.97 196.286 1185.86 198.49 1187.64 200.459C1189.52 202.333 1191.91 203.27 1194.82 203.27C1196.5 203.27 1198 202.99 1199.32 202.427C1200.72 201.77 1201.94 201.067 1202.98 200.317C1204.09 199.474 1205.04 198.77 1205.78 198.208C1206.54 197.552 1207.19 197.224 1207.75 197.224C1208.51 197.224 1208.93 197.552 1209.02 198.208C1209.11 198.77 1209.16 199.286 1209.16 199.756C1209.16 201.349 1208.93 202.99 1208.46 204.677C1208.08 206.27 1207.38 207.443 1206.35 208.193C1201.75 211.661 1197.68 214.802 1194.11 217.614C1190.55 220.333 1187.32 222.677 1184.41 224.646C1181.5 226.614 1178.88 228.114 1176.53 229.146C1174.19 230.177 1171.99 230.693 1169.93 230.693C1168.05 230.693 1166.36 230.177 1164.86 229.146C1163.46 228.114 1162.19 226.849 1161.07 225.349C1160.03 223.849 1159.14 222.256 1158.39 220.567C1157.64 218.786 1156.99 217.146 1156.43 215.646C1155.96 214.146 1155.58 212.927 1155.3 211.99C1155.02 211.052 1154.78 210.63 1154.6 210.724L1138.14 223.52ZM1112.27 198.349C1112.27 200.88 1112.74 202.943 1113.68 204.536C1114.71 206.13 1116.02 207.349 1117.61 208.193C1119.21 209.036 1120.99 209.646 1122.96 210.02C1125.02 210.302 1127.13 210.443 1129.28 210.443C1131.25 210.443 1133.69 209.974 1136.6 209.036C1139.5 208.006 1142.32 206.693 1145.03 205.099C1147.85 203.411 1150.24 201.536 1152.21 199.474C1154.18 197.317 1155.16 195.161 1155.16 193.006V169.802C1155.16 168.77 1154.78 168.256 1154.03 168.256C1153.85 168.256 1153.66 168.302 1153.47 168.396L1120.85 183.583C1119.53 184.52 1118.32 185.411 1117.19 186.256C1116.16 187.006 1115.27 187.943 1114.52 189.067C1113.77 190.099 1113.21 191.364 1112.83 192.864C1112.46 194.27 1112.27 196.099 1112.27 198.349ZM1289.45 222.114C1289.45 222.677 1289.35 223.474 1289.16 224.506C1288.98 225.536 1288.61 226.146 1288.04 226.333H1214.64C1214.08 226.146 1213.69 225.536 1213.51 224.506C1213.32 223.474 1213.22 222.677 1213.22 222.114C1213.22 221.646 1213.37 220.896 1213.66 219.864C1213.93 218.833 1214.26 218.224 1214.64 218.036C1215.85 217.474 1217.59 217.052 1219.84 216.77C1222.09 216.396 1224.34 215.74 1226.59 214.802C1228.84 213.77 1230.8 212.224 1232.5 210.161C1234.18 208.006 1235.03 204.864 1235.03 200.74V36.7707C1235.03 34.5207 1234.42 32.7863 1233.19 31.5676C1231.98 30.2552 1230.43 29.2708 1228.56 28.6145C1226.68 27.9583 1224.66 27.4426 1222.51 27.0676C1220.35 26.5989 1218.29 26.0833 1216.32 25.5207C1215.11 25.052 1214.5 23.7395 1214.5 21.5833C1214.5 21.1145 1214.64 20.5052 1214.92 19.7552C1215.19 18.9113 1215.76 18.2552 1216.61 17.7863L1263.16 -4.15112C1263.53 -4.33862 1263.95 -4.52612 1264.42 -4.71362C1264.88 -4.90112 1265.4 -4.99487 1265.96 -4.99487C1266.71 -4.99487 1267.18 -4.71362 1267.37 -4.15112C1267.56 -3.68237 1267.66 -2.83862 1267.66 -1.61983V200.74C1267.66 204.864 1268.5 208.006 1270.18 210.161C1271.87 212.224 1273.84 213.77 1276.09 214.802C1278.34 215.74 1280.59 216.396 1282.84 216.77C1285.09 217.052 1286.82 217.474 1288.04 218.036C1288.42 218.224 1288.74 218.833 1289.03 219.864C1289.3 220.896 1289.45 221.646 1289.45 222.114ZM1301.95 169.38C1301.95 158.411 1303.5 148.333 1306.6 139.146C1309.69 129.864 1314.14 121.849 1319.95 115.099C1325.76 108.349 1332.84 103.099 1341.19 99.3489C1349.63 95.5989 1359.19 93.7239 1369.87 93.7239C1373.06 93.7239 1375.92 93.9582 1378.45 94.427C1380.98 94.802 1383.28 95.3645 1385.34 96.1145C1387.5 96.7707 1389.47 97.6145 1391.26 98.6458C1393.13 99.5833 1395 100.615 1396.87 101.74C1399.03 102.865 1401.47 104.88 1404.19 107.786C1407 110.693 1409.63 114.067 1412.06 117.911C1414.5 121.756 1416.56 125.88 1418.26 130.286C1419.94 134.599 1420.78 138.77 1420.78 142.802C1420.78 144.114 1420.5 145.567 1419.94 147.161C1419.47 148.661 1418.63 149.411 1417.4 149.411H1334.44C1333.5 149.411 1332.84 150.256 1332.47 151.943C1332.19 153.63 1332.05 155.693 1332.05 158.13C1332.05 166.38 1333.22 173.74 1335.56 180.208C1338 186.583 1341.24 192.02 1345.26 196.52C1349.29 200.927 1353.94 204.302 1359.19 206.646C1364.44 208.896 1369.97 210.02 1375.78 210.02C1379.44 210.02 1382.95 209.552 1386.32 208.614C1389.71 207.583 1392.94 206.27 1396.03 204.677C1399.13 203.083 1402.03 201.302 1404.74 199.333C1407.47 197.364 1410.05 195.396 1412.48 193.427C1413.05 193.24 1413.42 193.146 1413.61 193.146C1413.89 193.146 1414.26 193.38 1414.74 193.849C1415.58 194.599 1416.42 195.49 1417.26 196.52C1418.11 197.459 1418.76 198.256 1419.24 198.911C1419.52 199.193 1419.66 199.474 1419.66 199.756C1419.66 200.036 1419.47 200.364 1419.1 200.74C1416 204.396 1412.21 208.006 1407.71 211.567C1403.21 215.036 1398.37 218.177 1393.22 220.99C1388.16 223.708 1382.95 225.911 1377.61 227.599C1372.26 229.286 1367.21 230.13 1362.42 230.13C1352.76 230.13 1344.19 228.396 1336.69 224.927C1329.19 221.364 1322.86 216.724 1317.71 211.006C1312.55 205.286 1308.61 198.817 1305.89 191.599C1303.26 184.286 1301.95 176.88 1301.95 169.38ZM1384.5 138.583C1386.94 138.583 1388.16 137.506 1388.16 135.349C1388.16 131.693 1387.55 128.27 1386.32 125.083C1385.21 121.802 1383.56 118.943 1381.4 116.506C1379.26 113.974 1376.63 112.006 1373.53 110.599C1370.53 109.193 1367.16 108.49 1363.4 108.49C1358.9 108.49 1354.97 109.474 1351.6 111.443C1348.22 113.317 1345.36 115.614 1343.02 118.333C1340.68 121.052 1338.89 123.864 1337.68 126.77C1336.55 129.677 1335.98 132.161 1335.98 134.224C1335.98 135.817 1336.22 136.943 1336.69 137.599C1337.16 138.256 1337.76 138.583 1338.52 138.583H1384.5Z" fill="#E6E3C9" fill-opacity="0.5"/>
</g>
</g>
<defs>
<filter id="filter0_ii_7_479" x="342" y="28.3333" width="202" height="202" filterUnits="userSpaceOnUse" color-interpolation-filters="sRGB">
<feFlood flood-opacity="0" result="BackgroundImageFix"/>
<feBlend mode="normal" in="SourceGraphic" in2="BackgroundImageFix" result="shape"/>
<feColorMatrix in="SourceAlpha" type="matrix" values="0 0 0 0 0 0 0 0 0 0 0 0 0 0 0 0 0 0 127 0" result="hardAlpha"/>
<feOffset dx="-6" dy="-6"/>
<feGaussianBlur stdDeviation="4"/>
<feComposite in2="hardAlpha" operator="arithmetic" k2="-1" k3="1"/>
<feColorMatrix type="matrix" values="0 0 0 0 0 0 0 0 0 0 0 0 0 0 0 0 0 0 0.2 0"/>
<feBlend mode="normal" in2="shape" result="effect1_innerShadow_7_479"/>
<feColorMatrix in="SourceAlpha" type="matrix" values="0 0 0 0 0 0 0 0 0 0 0 0 0 0 0 0 0 0 127 0" result="hardAlpha"/>
<feOffset dx="6" dy="6"/>
<feGaussianBlur stdDeviation="2"/>
<feComposite in2="hardAlpha" operator="arithmetic" k2="-1" k3="1"/>
<feColorMatrix type="matrix" values="0 0 0 0 1 0 0 0 0 1 0 0 0 0 1 0 0 0 0.25 0"/>
<feBlend mode="normal" in2="effect1_innerShadow_7_479" result="effect2_innerShadow_7_479"/>
</filter>
<clipPath id="clip0_7_479">
<rect width="1440" height="238.71" fill="white" transform="translate(0 0.333252)"/>
</clipPath>
</defs>
</svg>
