<svg width="32" height="33" viewBox="0 0 32 33" fill="none" xmlns="http://www.w3.org/2000/svg">
<g clip-path="url(#clip0_22_4)">
<path d="M16.0133 0.333252C7.15833 0.333252 0 7.54438 0 16.4655C0 23.5966 4.58659 29.6329 10.9494 31.7694C11.7449 31.93 12.0363 31.4223 12.0363 30.9952C12.0363 30.6212 12.0101 29.3393 12.0101 28.0036C7.5556 28.9653 6.62799 26.0805 6.62799 26.0805C5.91212 24.2109 4.85143 23.7303 4.85143 23.7303C3.39348 22.7421 4.95763 22.7421 4.95763 22.7421C6.57489 22.8489 7.42353 24.398 7.42353 24.398C8.85493 26.8551 11.1615 26.1608 12.0894 25.7334C12.2219 24.6917 12.6463 23.9706 13.097 23.5701C9.5442 23.1961 5.80625 21.8073 5.80625 15.6107C5.80625 13.8479 6.44214 12.4057 7.44973 11.284C7.29073 10.8835 6.73387 9.22719 7.609 7.01039C7.609 7.01039 8.96113 6.58299 12.0097 8.66632C13.315 8.31319 14.6611 8.13359 16.0133 8.13205C17.3653 8.13205 18.7436 8.31925 20.0164 8.66632C23.0654 6.58299 24.4175 7.01039 24.4175 7.01039C25.2926 9.22719 24.7354 10.8835 24.5764 11.284C25.6105 12.4057 26.2202 13.8479 26.2202 15.6107C26.2202 21.8073 22.4823 23.1692 18.9029 23.5701C19.4864 24.0775 19.9899 25.0388 19.9899 26.5613C19.9899 28.7247 19.9636 30.4609 19.9636 30.9949C19.9636 31.4223 20.2553 31.93 21.0505 31.7697C27.4133 29.6327 31.9999 23.5966 31.9999 16.4655C32.0261 7.54438 24.8416 0.333252 16.0133 0.333252Z" fill="white"/>
</g>
<defs>
<clipPath id="clip0_22_4">
<rect width="32" height="32" fill="white" transform="translate(0 0.333252)"/>
</clipPath>
</defs>
</svg>
