<svg width="160" height="38" viewBox="0 0 160 38" fill="none" xmlns="http://www.w3.org/2000/svg">
<path d="M3.52918 7.36981C3.52918 7.06773 3.45626 6.8021 3.31042 6.57294C3.17501 6.33336 2.98751 6.13544 2.74793 5.9792C2.50834 5.82294 2.2323 5.70314 1.91979 5.61981C1.6073 5.53648 1.27397 5.49481 0.9198 5.49481C0.836466 5.49481 0.7948 5.45314 0.7948 5.36981V4.76044C0.7948 4.6771 0.831258 4.63544 0.904174 4.63544H10.7792C10.8313 4.63544 10.8625 4.65106 10.8729 4.68232C10.8938 4.71357 10.9042 4.73961 10.9042 4.76044V5.36981C10.9042 5.39065 10.8938 5.41669 10.8729 5.44794C10.8625 5.4792 10.8313 5.49481 10.7792 5.49481C10.4667 5.49481 10.1438 5.51565 9.81042 5.55732C9.48751 5.59898 9.18542 5.69273 8.90418 5.83857C8.63334 5.9844 8.40938 6.19794 8.2323 6.4792C8.06563 6.75002 7.9823 7.11981 7.9823 7.58857V18.5416C7.9823 20.6251 8.51355 22.2396 9.57605 23.3855C10.6386 24.5208 12.2271 25.0886 14.3417 25.0886C15.2167 25.0886 16.0552 24.9688 16.8573 24.7292C17.6593 24.4792 18.3677 24.099 18.9823 23.5886C19.5969 23.0782 20.0864 22.4271 20.4511 21.6355C20.8156 20.8438 20.9979 19.9011 20.9979 18.8074V9.10418C20.9979 8.75002 20.9823 8.38544 20.9511 8.01044C20.9303 7.63544 20.8469 7.28128 20.7011 6.94794C20.5552 6.61461 20.326 6.32814 20.0136 6.08857C19.7011 5.83857 19.2584 5.66669 18.6855 5.57294C18.4251 5.53128 18.2063 5.51044 18.0292 5.51044C17.8625 5.50002 17.7531 5.49481 17.7011 5.49481C17.6177 5.49481 17.576 5.45314 17.576 5.36981V4.76044C17.576 4.6771 17.6177 4.63544 17.7011 4.63544H25.8573C25.9093 4.63544 25.9407 4.65106 25.9511 4.68232C25.9719 4.71357 25.9823 4.73961 25.9823 4.76044V5.36981C25.9823 5.39065 25.9719 5.41669 25.9511 5.44794C25.9303 5.4792 25.8989 5.49481 25.8573 5.49481C25.4823 5.49481 25.1489 5.52606 24.8573 5.58857C24.576 5.64065 24.3625 5.69794 24.2167 5.76044C24.0396 5.83336 23.8781 5.94794 23.7323 6.10418C23.5864 6.25002 23.4615 6.41148 23.3573 6.58857C23.2636 6.75524 23.1907 6.93232 23.1385 7.11981C23.0864 7.2969 23.0604 7.45314 23.0604 7.58857V17.5886C23.0604 19.0574 22.8677 20.3803 22.4823 21.5574C22.0969 22.724 21.5136 23.7188 20.7323 24.5416C19.9615 25.3542 18.9875 25.9844 17.8104 26.4323C16.6333 26.8698 15.2584 27.0886 13.6855 27.0886C12.9354 27.0886 12.1594 27.0312 11.3573 26.9167C10.5656 26.8022 9.78959 26.6198 9.02918 26.3698C8.27918 26.1198 7.57085 25.797 6.90418 25.4011C6.23751 25.0052 5.65418 24.5312 5.15418 23.9792C4.65418 23.4271 4.25834 22.7918 3.96667 22.073C3.67501 21.3542 3.52918 20.5416 3.52918 19.6355V7.36981ZM34.4812 23.6979C34.4812 24.0522 34.5333 24.349 34.6375 24.5886C34.7521 24.8282 34.9083 25.0208 35.1063 25.1667C35.3145 25.3126 35.5645 25.4167 35.8563 25.4792C36.1583 25.5416 36.4916 25.573 36.8563 25.573C36.9396 25.573 36.9812 25.6146 36.9812 25.6979V26.5416C36.9812 26.573 36.976 26.6042 36.9656 26.6355C36.9552 26.6563 36.9188 26.6667 36.8563 26.6667H27.6219C27.5697 26.6667 27.5333 26.6511 27.5125 26.6198C27.5021 26.5886 27.4969 26.5626 27.4969 26.5416V25.6979C27.4969 25.6771 27.5021 25.6511 27.5125 25.6198C27.5333 25.5886 27.5697 25.573 27.6219 25.573C27.9864 25.573 28.3145 25.5522 28.6063 25.5104C28.9083 25.4584 29.1636 25.3542 29.3719 25.1979C29.5803 25.0416 29.7416 24.8178 29.8563 24.526C29.9708 24.2344 30.0281 23.8386 30.0281 23.3386V7.60418C30.0281 7.25002 29.9708 6.95314 29.8563 6.71357C29.7521 6.47398 29.5959 6.28128 29.3875 6.13544C29.1896 5.98961 28.9396 5.88544 28.6375 5.82294C28.3459 5.76044 28.0177 5.7292 27.6531 5.7292C27.5697 5.7292 27.5281 5.68752 27.5281 5.60418V4.76044C27.5281 4.6771 27.5697 4.63544 27.6531 4.63544H36.8875C36.9396 4.63544 36.9708 4.65106 36.9812 4.68232C37.0021 4.71357 37.0125 4.73961 37.0125 4.76044V5.60418C37.0125 5.62502 37.0021 5.65106 36.9812 5.68232C36.9708 5.71357 36.9396 5.7292 36.8875 5.7292C36.5229 5.7292 36.1896 5.75524 35.8875 5.80732C35.5959 5.84898 35.3459 5.94794 35.1375 6.10418C34.9292 6.26044 34.7677 6.4844 34.6531 6.77606C34.5385 7.06773 34.4812 7.46357 34.4812 7.96357V23.6979Z" fill="#ADAEF8"/>
<g filter="url(#filter0_ii_11_2832)">
<mask id="mask0_11_2832" style="mask-type:alpha" maskUnits="userSpaceOnUse" x="38" y="5" width="22" height="22">
<path fill-rule="evenodd" clip-rule="evenodd" d="M49.6649 14.3808L49.3333 5.33331L49.0044 14.308L44.186 10.8525L47.6416 15.671L38.6666 16L47.7141 16.3316L44.186 21.2512L49.0081 17.793L49.3333 26.6666L49.6612 17.7202L54.5846 21.2512L51.0538 16.3278L60 16L51.1264 15.6748L54.5846 10.8525L49.6649 14.3808Z" fill="white"/>
</mask>
<g mask="url(#mask0_11_2832)">
<path d="M60 5.33331H38.6666V26.6666H60V5.33331Z" fill="white"/>
</g>
</g>
<path d="M61.276 25.8542C61.276 25.8438 61.2812 25.823 61.2918 25.7918C61.3022 25.75 61.3386 25.7292 61.4011 25.7292C61.4636 25.7292 61.5626 25.7188 61.6979 25.6979C61.8334 25.6771 61.974 25.6563 62.1198 25.6355C62.2656 25.6146 62.4011 25.5938 62.526 25.573C62.6511 25.5416 62.7396 25.5208 62.7918 25.5104C63.3855 25.375 63.797 25.1563 64.026 24.8542C64.2656 24.5416 64.3855 24.1563 64.3855 23.6979V7.82294C64.3855 7.3021 64.276 6.89065 64.0574 6.58857C63.8386 6.28647 63.5834 6.06251 63.2918 5.91669C63.0104 5.76043 62.7344 5.66669 62.4636 5.63543C62.2031 5.59377 62.026 5.57294 61.9323 5.57294H61.3386C61.2864 5.57294 61.25 5.55731 61.2292 5.52606C61.2188 5.49481 61.2136 5.46877 61.2136 5.44794V4.76043C61.2136 4.73961 61.2188 4.71877 61.2292 4.69794C61.2396 4.66669 61.276 4.64586 61.3386 4.63543C61.349 4.63543 61.3698 4.63543 61.4011 4.63543C61.4427 4.63543 61.5208 4.63543 61.6355 4.63543C61.75 4.62502 61.9167 4.61981 62.1355 4.61981C62.3542 4.60939 62.6615 4.59898 63.0574 4.58857C63.6303 4.57814 64.2396 4.56251 64.8855 4.54169C65.5416 4.52086 66.2031 4.50002 66.8698 4.47919C67.5364 4.45835 68.1927 4.44273 68.8386 4.43231C69.4948 4.41147 70.1094 4.40106 70.6823 4.40106H72.2604C73.0834 4.40106 73.9219 4.54169 74.776 4.82294C75.6303 5.10418 76.4011 5.52086 77.0886 6.07294C77.7864 6.61461 78.3542 7.29169 78.7918 8.10418C79.2396 8.91669 79.4636 9.85418 79.4636 10.9167C79.4636 11.6042 79.3698 12.2188 79.1823 12.7604C78.9948 13.2917 78.7344 13.7656 78.4011 14.1823C78.0782 14.5886 77.6875 14.9479 77.2292 15.2604C76.7812 15.573 76.2918 15.849 75.7604 16.0886L80.4948 23.5886C80.9011 24.2344 81.375 24.823 81.9167 25.3542C82.4584 25.875 83.0886 26.2396 83.8074 26.4479C83.8907 26.4688 83.9375 26.5 83.9479 26.5416C83.9688 26.573 83.9792 26.6146 83.9792 26.6667C83.9792 26.823 83.9375 26.9271 83.8542 26.9792C83.7708 27.0312 83.6407 27.0574 83.4636 27.0574C83.026 27.0574 82.526 27.026 81.9636 26.9636C81.4115 26.9115 80.8542 26.8178 80.2918 26.6823C79.7292 26.5574 79.1927 26.3907 78.6823 26.1823C78.1823 25.974 77.7604 25.7136 77.4167 25.4011C77.0834 25.1094 76.7448 24.7396 76.4011 24.2918C76.0574 23.8438 75.7083 23.3646 75.3542 22.8542C75.0104 22.3334 74.6667 21.797 74.323 21.2448C73.9896 20.6823 73.6615 20.1355 73.3386 19.6042C73.026 19.073 72.724 18.5782 72.4323 18.1198C72.1407 17.6615 71.875 17.2708 71.6355 16.9479L69.1979 16.776C69.1875 16.776 69.1459 16.776 69.073 16.776C69 16.776 68.9479 16.7864 68.9167 16.8074C68.8855 16.8282 68.8646 16.849 68.8542 16.8698C68.8438 16.8907 68.8386 16.9323 68.8386 16.9948V23.6511C68.8386 23.9323 68.875 24.1771 68.9479 24.3855C69.0208 24.5938 69.1407 24.776 69.3074 24.9323C69.4844 25.0782 69.7083 25.1979 69.9792 25.2918C70.2604 25.3855 70.599 25.4584 70.9948 25.5104C71.0574 25.5208 71.1459 25.5364 71.2604 25.5574C71.3855 25.5782 71.5156 25.6042 71.6511 25.6355C71.797 25.6563 71.9375 25.6771 72.073 25.6979C72.2083 25.7188 72.323 25.7292 72.4167 25.7292C72.4792 25.7292 72.5156 25.7448 72.526 25.776C72.5364 25.8074 72.5416 25.8334 72.5416 25.8542V26.5416C72.5416 26.5626 72.5312 26.5886 72.5104 26.6198C72.5 26.6511 72.4688 26.6667 72.4167 26.6667H61.4011C61.349 26.6667 61.3126 26.5938 61.2918 26.4479C61.2812 26.3022 61.276 26.1667 61.276 26.0416V25.8542ZM68.8698 15.2136C68.8803 15.297 68.9011 15.375 68.9323 15.4479C68.974 15.5104 69.0522 15.547 69.1667 15.5574C69.2604 15.5678 69.4011 15.5886 69.5886 15.6198C69.776 15.6407 70.0364 15.6511 70.3698 15.6511C71.2864 15.6511 72.0416 15.5104 72.6355 15.2292C73.2292 14.9479 73.6979 14.573 74.0416 14.1042C74.3855 13.6251 74.6198 13.0781 74.7448 12.4636C74.8803 11.849 74.9479 11.2084 74.9479 10.5417C74.9479 9.84377 74.8386 9.18231 74.6198 8.55731C74.4011 7.93231 74.0938 7.39065 73.6979 6.93231C73.3126 6.47398 72.8438 6.10939 72.2918 5.83857C71.75 5.56773 71.1511 5.43231 70.4948 5.43231C70.349 5.43231 70.2344 5.43751 70.1511 5.44794C70.0678 5.44794 69.9844 5.45314 69.9011 5.46357C69.8282 5.46357 69.7396 5.46877 69.6355 5.47919C69.5416 5.47919 69.4063 5.48439 69.2292 5.49481C69.1667 5.49481 69.0834 5.51043 68.9792 5.54169C68.8855 5.56251 68.8386 5.63023 68.8386 5.74481V14.7448L68.8698 15.2136ZM85.0875 19.3698C85.0875 18.3907 85.3011 17.4531 85.7282 16.5574C86.1656 15.6615 86.749 14.8698 87.4782 14.1823C88.2074 13.4948 89.0563 12.9479 90.025 12.5417C90.9938 12.1354 92.0146 11.9323 93.0875 11.9323C94.2126 11.9323 95.2803 12.125 96.2907 12.5104C97.3011 12.8959 98.1864 13.4271 98.947 14.1042C99.7178 14.7708 100.327 15.5626 100.775 16.4792C101.223 17.3855 101.447 18.3698 101.447 19.4323C101.447 20.5156 101.239 21.526 100.822 22.4636C100.416 23.3907 99.8479 24.1979 99.1188 24.8855C98.3896 25.573 97.5198 26.1146 96.5094 26.5104C95.5094 26.8959 94.4156 27.0886 93.2282 27.0886C92.0511 27.0886 90.9626 26.8907 89.9626 26.4948C88.973 26.0886 88.1136 25.5416 87.3844 24.8542C86.6656 24.1563 86.1031 23.3386 85.697 22.4011C85.2907 21.4636 85.0875 20.4531 85.0875 19.3698ZM89.0875 18.3855C89.0875 18.9479 89.1292 19.5312 89.2126 20.1355C89.2959 20.7292 89.4208 21.3126 89.5875 21.8855C89.7542 22.4479 89.9626 22.9792 90.2126 23.4792C90.473 23.9792 90.7803 24.4219 91.1344 24.8074C91.4886 25.1823 91.8896 25.4792 92.3375 25.6979C92.7855 25.9167 93.2907 26.026 93.8531 26.026C94.4678 26.026 94.9938 25.8698 95.4312 25.5574C95.8792 25.2344 96.2438 24.8178 96.525 24.3074C96.8167 23.797 97.0303 23.224 97.1656 22.5886C97.3011 21.9531 97.3688 21.3178 97.3688 20.6823C97.3688 20.1719 97.3219 19.6355 97.2282 19.073C97.1344 18.5 96.9938 17.9375 96.8063 17.3855C96.6188 16.823 96.3896 16.2864 96.1188 15.776C95.8479 15.2656 95.5303 14.8178 95.1656 14.4323C94.8115 14.0364 94.4104 13.724 93.9626 13.4948C93.525 13.2656 93.0459 13.1511 92.525 13.1511C91.9416 13.1511 91.4312 13.3125 90.9938 13.6355C90.5667 13.9479 90.2126 14.3594 89.9312 14.8698C89.65 15.3698 89.4364 15.9323 89.2907 16.5574C89.1552 17.1719 89.0875 17.7812 89.0875 18.3855ZM107.04 36.3542C106.852 36.3542 106.67 36.323 106.493 36.2604C106.316 36.1979 106.154 36.1094 106.008 35.9948C105.863 35.8803 105.743 35.7448 105.649 35.5886C105.566 35.4427 105.524 35.276 105.524 35.0886C105.524 34.797 105.597 34.573 105.743 34.4167C105.899 34.2604 106.086 34.1303 106.305 34.026C106.524 33.9219 106.753 33.8334 106.993 33.7604C107.232 33.6875 107.435 33.5886 107.602 33.4636C107.717 33.3803 107.836 33.2812 107.961 33.1667C108.097 33.0626 108.217 32.8907 108.321 32.6511L110.368 27.8855L104.383 15.4011C104.206 14.9219 103.951 14.5052 103.618 14.1511C103.284 13.7864 102.878 13.526 102.399 13.3698C102.326 13.349 102.237 13.3281 102.133 13.3073C102.029 13.2761 101.93 13.2396 101.836 13.1979C101.732 13.1563 101.649 13.1042 101.586 13.0417C101.514 12.9688 101.477 12.875 101.477 12.7604C101.477 12.6563 101.508 12.5521 101.571 12.4479C101.633 12.3438 101.727 12.2917 101.852 12.2917H110.102C110.165 12.2917 110.201 12.3542 110.211 12.4792C110.222 12.6042 110.227 12.6823 110.227 12.7136C110.227 12.8594 110.165 12.9636 110.04 13.0261C109.925 13.0781 109.779 13.1146 109.602 13.1354C109.425 13.1563 109.232 13.1719 109.024 13.1823C108.826 13.1927 108.639 13.2292 108.461 13.2917C108.284 13.3542 108.133 13.4531 108.008 13.5886C107.894 13.724 107.836 13.9271 107.836 14.1979C107.836 14.2292 107.857 14.297 107.899 14.4011C107.951 14.4948 107.977 14.5522 107.977 14.573L111.852 22.8698C111.873 22.9219 111.909 23 111.961 23.1042C112.024 23.1979 112.092 23.2448 112.165 23.2448C112.206 23.2448 112.248 23.224 112.29 23.1823C112.331 23.1303 112.368 23.073 112.399 23.0104C112.43 22.9479 112.456 22.8907 112.477 22.8386C112.498 22.776 112.514 22.7344 112.524 22.7136C113.003 21.4844 113.404 20.4427 113.727 19.5886C114.06 18.7344 114.331 18.026 114.54 17.4636C114.758 16.9011 114.92 16.4636 115.024 16.1511C115.139 15.8282 115.217 15.5834 115.258 15.4167C115.31 15.2396 115.342 15.1146 115.352 15.0416C115.363 14.9584 115.368 14.8803 115.368 14.8074C115.389 14.4427 115.279 14.1407 115.04 13.9011C114.8 13.6615 114.514 13.4844 114.18 13.3698C114.086 13.3386 113.967 13.3177 113.821 13.3073C113.685 13.2865 113.55 13.2604 113.415 13.2292C113.29 13.1875 113.175 13.1302 113.071 13.0573C112.977 12.974 112.93 12.8594 112.93 12.7136C112.93 12.6302 112.967 12.5417 113.04 12.4479C113.113 12.3438 113.191 12.2917 113.274 12.2917H119.508C119.592 12.2917 119.639 12.3542 119.649 12.4792C119.67 12.5938 119.68 12.6771 119.68 12.7292C119.68 12.8021 119.67 12.8646 119.649 12.9167C119.628 12.9688 119.576 13.0156 119.493 13.0573C119.42 13.099 119.31 13.1406 119.165 13.1823C119.029 13.224 118.847 13.2656 118.618 13.3073C118.399 13.349 118.201 13.4584 118.024 13.6355C117.847 13.8022 117.685 14 117.54 14.2292C117.404 14.4479 117.279 14.6823 117.165 14.9323C117.06 15.1823 116.967 15.4063 116.883 15.6042L108.961 35.2292C108.878 35.4271 108.758 35.5938 108.602 35.7292C108.446 35.875 108.274 35.9948 108.086 36.0886C107.899 36.1823 107.711 36.25 107.524 36.2918C107.336 36.3334 107.175 36.3542 107.04 36.3542ZM126.46 26.3542C126.117 26.5938 125.71 26.7812 125.242 26.9167C124.773 27.0522 124.304 27.1198 123.835 27.1198C122.565 27.1198 121.596 26.8334 120.929 26.2604C120.273 25.6875 119.945 24.9115 119.945 23.9323C119.945 23.3698 120.07 22.8855 120.32 22.4792C120.58 22.073 120.96 21.7136 121.46 21.4011C121.96 21.0886 122.575 20.8074 123.304 20.5574C124.044 20.297 124.898 20.0416 125.867 19.7918C126.387 19.6563 126.804 19.5104 127.117 19.3542C127.44 19.1979 127.736 19.047 128.007 18.9011C128.184 18.8074 128.283 18.724 128.304 18.6511C128.336 18.5782 128.351 18.5104 128.351 18.4479V15.7292C128.351 15.3855 128.299 15.0678 128.195 14.776C128.101 14.474 127.955 14.2136 127.757 13.9948C127.559 13.776 127.32 13.6042 127.039 13.4792C126.757 13.3542 126.44 13.2917 126.085 13.2917C125.783 13.2917 125.502 13.3438 125.242 13.4479C124.981 13.5522 124.757 13.7031 124.57 13.9011C124.382 14.099 124.231 14.3334 124.117 14.6042C124.013 14.875 123.96 15.1823 123.96 15.526C123.96 15.5574 123.96 15.6042 123.96 15.6667C123.971 15.7292 123.981 15.797 123.992 15.8698C124.002 15.9323 124.013 15.9896 124.023 16.0416C124.033 16.0938 124.039 16.1251 124.039 16.1355C124.028 16.1563 123.94 16.1979 123.773 16.2604C123.617 16.323 123.419 16.3959 123.179 16.4792C122.95 16.5522 122.695 16.6303 122.414 16.7136C122.132 16.7864 121.861 16.8594 121.601 16.9323C121.351 17.0052 121.127 17.073 120.929 17.1355C120.742 17.1875 120.611 17.2188 120.539 17.2292C120.424 17.2292 120.351 17.1719 120.32 17.0574C120.299 16.9323 120.289 16.8126 120.289 16.6979C120.289 16.0938 120.471 15.5052 120.835 14.9323C121.2 14.3594 121.684 13.8542 122.289 13.4167C122.903 12.9688 123.606 12.6094 124.398 12.3386C125.19 12.0677 126.007 11.9323 126.851 11.9323C127.601 11.9323 128.273 12.0313 128.867 12.2292C129.46 12.4167 129.966 12.6823 130.382 13.0261C130.799 13.3594 131.117 13.75 131.335 14.1979C131.554 14.6355 131.664 15.1042 131.664 15.6042V23.0574C131.664 23.3282 131.763 23.573 131.96 23.7918C132.169 24 132.434 24.1042 132.757 24.1042C132.945 24.1042 133.111 24.073 133.257 24.0104C133.413 23.9375 133.549 23.8594 133.664 23.776C133.788 23.6823 133.893 23.6042 133.976 23.5416C134.06 23.4688 134.132 23.4323 134.195 23.4323C134.279 23.4323 134.325 23.4688 134.336 23.5416C134.345 23.6042 134.351 23.6615 134.351 23.7136C134.351 23.8907 134.325 24.073 134.273 24.2604C134.231 24.4375 134.153 24.5678 134.039 24.6511C133.528 25.0364 133.075 25.3855 132.679 25.6979C132.283 26 131.924 26.2604 131.601 26.4792C131.278 26.6979 130.986 26.8646 130.726 26.9792C130.466 27.0938 130.221 27.1511 129.992 27.1511C129.783 27.1511 129.596 27.0938 129.429 26.9792C129.273 26.8646 129.132 26.724 129.007 26.5574C128.893 26.3907 128.794 26.2136 128.71 26.026C128.627 25.8282 128.554 25.6459 128.492 25.4792C128.44 25.3126 128.398 25.1771 128.367 25.073C128.335 24.9688 128.309 24.9219 128.289 24.9323L126.46 26.3542ZM123.585 23.5574C123.585 23.8386 123.637 24.0678 123.742 24.2448C123.856 24.4219 124.002 24.5574 124.179 24.6511C124.356 24.7448 124.554 24.8126 124.773 24.8542C125.002 24.8855 125.236 24.9011 125.476 24.9011C125.695 24.9011 125.966 24.849 126.289 24.7448C126.611 24.6303 126.924 24.4844 127.226 24.3074C127.539 24.1198 127.804 23.9115 128.023 23.6823C128.242 23.4427 128.351 23.2031 128.351 22.9636V20.3855C128.351 20.2708 128.309 20.2136 128.226 20.2136C128.205 20.2136 128.184 20.2188 128.164 20.2292L124.539 21.9167C124.393 22.0208 124.257 22.1198 124.132 22.2136C124.018 22.297 123.919 22.4011 123.835 22.526C123.752 22.6407 123.69 22.7812 123.648 22.9479C123.606 23.1042 123.585 23.3074 123.585 23.5574ZM143.272 26.1979C143.272 26.2604 143.261 26.349 143.24 26.4636C143.22 26.5782 143.179 26.6459 143.116 26.6667H134.96C134.897 26.6459 134.855 26.5782 134.835 26.4636C134.813 26.349 134.803 26.2604 134.803 26.1979C134.803 26.1459 134.819 26.0626 134.851 25.9479C134.881 25.8334 134.917 25.7656 134.96 25.7448C135.095 25.6823 135.288 25.6355 135.537 25.6042C135.788 25.5626 136.037 25.4896 136.288 25.3855C136.537 25.2708 136.756 25.099 136.944 24.8698C137.131 24.6303 137.225 24.2812 137.225 23.823V5.60418C137.225 5.35418 137.157 5.16147 137.021 5.02606C136.887 4.88023 136.715 4.77086 136.507 4.69794C136.297 4.62502 136.073 4.56773 135.835 4.52606C135.595 4.47398 135.365 4.41669 135.147 4.35418C135.012 4.3021 134.944 4.15627 134.944 3.91669C134.944 3.86461 134.96 3.7969 134.991 3.71357C135.021 3.61981 135.084 3.5469 135.179 3.49481L140.351 1.05731C140.392 1.03648 140.439 1.01565 140.491 0.994813C140.543 0.973979 140.6 0.963562 140.663 0.963562C140.745 0.963562 140.797 0.994813 140.819 1.05731C140.84 1.1094 140.851 1.20315 140.851 1.33857V23.823C140.851 24.2812 140.944 24.6303 141.131 24.8698C141.319 25.099 141.537 25.2708 141.788 25.3855C142.037 25.4896 142.288 25.5626 142.537 25.6042C142.788 25.6355 142.98 25.6823 143.116 25.7448C143.157 25.7656 143.193 25.8334 143.225 25.9479C143.256 26.0626 143.272 26.1459 143.272 26.1979ZM144.661 20.3386C144.661 19.1198 144.833 18 145.177 16.9792C145.521 15.9479 146.016 15.0574 146.661 14.3074C147.307 13.5574 148.093 12.974 149.021 12.5573C149.959 12.1406 151.021 11.9323 152.208 11.9323C152.563 11.9323 152.88 11.9584 153.161 12.0104C153.443 12.0521 153.697 12.1146 153.927 12.1979C154.167 12.2708 154.385 12.3646 154.584 12.4792C154.792 12.5834 155 12.6979 155.208 12.8229C155.448 12.9479 155.719 13.1719 156.021 13.4948C156.333 13.8178 156.625 14.1927 156.896 14.6198C157.167 15.047 157.396 15.5052 157.584 15.9948C157.771 16.474 157.864 16.9375 157.864 17.3855C157.864 17.5312 157.833 17.6927 157.771 17.8698C157.719 18.0364 157.625 18.1198 157.489 18.1198H148.271C148.167 18.1198 148.093 18.2136 148.052 18.4011C148.021 18.5886 148.005 18.8178 148.005 19.0886C148.005 20.0052 148.136 20.823 148.396 21.5416C148.667 22.25 149.027 22.8542 149.473 23.3542C149.921 23.8438 150.437 24.2188 151.021 24.4792C151.604 24.7292 152.219 24.8542 152.864 24.8542C153.271 24.8542 153.661 24.8022 154.036 24.6979C154.412 24.5834 154.771 24.4375 155.115 24.2604C155.459 24.0834 155.781 23.8855 156.083 23.6667C156.385 23.4479 156.672 23.2292 156.943 23.0104C157.005 22.9896 157.047 22.9792 157.068 22.9792C157.099 22.9792 157.14 23.0052 157.193 23.0574C157.287 23.1407 157.38 23.2396 157.473 23.3542C157.568 23.4584 157.64 23.547 157.693 23.6198C157.724 23.6511 157.74 23.6823 157.74 23.7136C157.74 23.7448 157.719 23.7812 157.677 23.823C157.333 24.2292 156.912 24.6303 156.412 25.026C155.912 25.4115 155.375 25.7604 154.803 26.073C154.24 26.375 153.661 26.6198 153.068 26.8074C152.473 26.9948 151.912 27.0886 151.38 27.0886C150.307 27.0886 149.355 26.8959 148.521 26.5104C147.688 26.1146 146.984 25.599 146.412 24.9636C145.839 24.3282 145.401 23.6094 145.099 22.8074C144.807 21.9948 144.661 21.1719 144.661 20.3386ZM153.833 16.9167C154.104 16.9167 154.24 16.797 154.24 16.5574C154.24 16.1511 154.172 15.7708 154.036 15.4167C153.912 15.0522 153.729 14.7344 153.489 14.4636C153.251 14.1823 152.959 13.9636 152.615 13.8074C152.281 13.6511 151.907 13.573 151.489 13.573C150.989 13.573 150.552 13.6823 150.177 13.9011C149.803 14.1094 149.484 14.3646 149.224 14.6667C148.964 14.9688 148.765 15.2812 148.631 15.6042C148.505 15.9271 148.443 16.2031 148.443 16.4323C148.443 16.6094 148.469 16.7344 148.521 16.8074C148.573 16.8803 148.64 16.9167 148.724 16.9167H153.833Z" fill="url(#paint0_linear_11_2832)"/>
<defs>
<filter id="filter0_ii_11_2832" x="32.6666" y="-0.666687" width="31.3334" height="31.3333" filterUnits="userSpaceOnUse" color-interpolation-filters="sRGB">
<feFlood flood-opacity="0" result="BackgroundImageFix"/>
<feBlend mode="normal" in="SourceGraphic" in2="BackgroundImageFix" result="shape"/>
<feColorMatrix in="SourceAlpha" type="matrix" values="0 0 0 0 0 0 0 0 0 0 0 0 0 0 0 0 0 0 127 0" result="hardAlpha"/>
<feOffset dx="-6" dy="-6"/>
<feGaussianBlur stdDeviation="4"/>
<feComposite in2="hardAlpha" operator="arithmetic" k2="-1" k3="1"/>
<feColorMatrix type="matrix" values="0 0 0 0 0 0 0 0 0 0 0 0 0 0 0 0 0 0 0.2 0"/>
<feBlend mode="normal" in2="shape" result="effect1_innerShadow_11_2832"/>
<feColorMatrix in="SourceAlpha" type="matrix" values="0 0 0 0 0 0 0 0 0 0 0 0 0 0 0 0 0 0 127 0" result="hardAlpha"/>
<feOffset dx="6" dy="6"/>
<feGaussianBlur stdDeviation="2"/>
<feComposite in2="hardAlpha" operator="arithmetic" k2="-1" k3="1"/>
<feColorMatrix type="matrix" values="0 0 0 0 1 0 0 0 0 1 0 0 0 0 1 0 0 0 0.25 0"/>
<feBlend mode="normal" in2="effect1_innerShadow_11_2832" result="effect2_innerShadow_11_2832"/>
</filter>
<linearGradient id="paint0_linear_11_2832" x1="68.5447" y1="9.33335" x2="151.012" y2="25.002" gradientUnits="userSpaceOnUse">
<stop stop-color="#ADAEF8"/>
<stop offset="1" stop-color="#E6E3C9"/>
</linearGradient>
</defs>
</svg>
