<svg width="25" height="25" viewBox="0 0 25 25" fill="none" xmlns="http://www.w3.org/2000/svg">
<path d="M10.4456 17.1299L10.4455 17.1298C10.0508 16.8315 9.875 16.3692 9.875 15.7667V4.26666C9.875 3.00067 11.0185 2.01666 12.375 2.01666H15.409C15.7599 2.01666 16.1022 2.13865 16.3608 2.36353L16.3958 2.39859L21.3325 7.78064L21.3457 7.79504L21.36 7.80837C21.606 8.03767 21.75 8.35011 21.75 8.68066V15.2667C21.75 16.5327 20.6065 17.5167 19.25 17.5167H12C11.3624 17.5167 10.826 17.4176 10.4456 17.1299ZM4.02786 21.7474L4.02718 21.7468C3.57016 21.2958 3.25 20.6792 3.25 20.0447V9.26666C3.25 8.63732 3.61047 8.06548 4.25309 7.66098C4.89312 7.25971 5.81725 7.01666 7 7.01666C7.0663 7.01666 7.12989 7.043 7.17678 7.08989C7.22366 7.13677 7.25 7.20036 7.25 7.26666V16.2667C7.25 17.2612 7.64509 18.2151 8.34835 18.9183C9.05161 19.6216 10.0054 20.0167 11 20.0167H16C16.0663 20.0167 16.1299 20.043 16.1768 20.0899C16.2237 20.1368 16.25 20.2004 16.25 20.2667C16.25 20.9138 15.937 21.4671 15.44 21.8715C14.9377 22.2803 14.268 22.5167 13.625 22.5167H5.75C5.10767 22.5167 4.48486 22.2001 4.02786 21.7474Z" stroke="#ADAEF8"/>
</svg>
