<svg width="25" height="25" viewBox="0 0 25 25" fill="none" xmlns="http://www.w3.org/2000/svg">
<path d="M21.2678 4.39886C21.7366 4.8677 22 5.50358 22 6.16663V8.66663H3V6.16663C3 5.50358 3.26339 4.8677 3.73223 4.39886C4.20107 3.93002 4.83696 3.66663 5.5 3.66663H19.5C20.163 3.66663 20.7989 3.93002 21.2678 4.39886ZM3 18.1666V11.6666H13V20.6666H5.5C4.83696 20.6666 4.20107 20.4032 3.73223 19.9344C3.26339 19.4656 3 18.8297 3 18.1666ZM16 20.6666V11.6666H22V18.1666C22 18.8297 21.7366 19.4656 21.2678 19.9344C20.7989 20.4032 20.163 20.6666 19.5 20.6666H16Z" stroke="#555555"/>
</svg>
