<svg width="200" height="201" viewBox="0 0 200 201" fill="none" xmlns="http://www.w3.org/2000/svg">
<g filter="url(#filter0_ii_7_953)">
<mask id="mask0_7_953" style="mask-type:alpha" maskUnits="userSpaceOnUse" x="25" y="14" width="150" height="133">
<path d="M94.262 19.1058C95.9925 13.4443 104.007 13.4443 105.738 19.1058L125.576 84.0081C125.842 84.8801 126.304 85.6798 126.926 86.3466L173.214 135.978C177.252 140.307 173.244 147.248 167.476 145.916L101.35 130.645C100.462 130.44 99.5383 130.44 98.6499 130.645L32.524 145.916C26.7557 147.248 22.7482 140.307 26.786 135.978L73.0742 86.3466C73.696 85.6798 74.1578 84.8801 74.4243 84.0081L94.262 19.1058Z" fill="white"/>
</mask>
<g mask="url(#mask0_7_953)">
<rect x="187" y="215.333" width="224" height="224" transform="rotate(180 187 215.333)" fill="url(#paint0_linear_7_953)"/>
</g>
</g>
<defs>
<filter id="filter0_ii_7_953" x="19.1485" y="8.85962" width="159.703" height="141.224" filterUnits="userSpaceOnUse" color-interpolation-filters="sRGB">
<feFlood flood-opacity="0" result="BackgroundImageFix"/>
<feBlend mode="normal" in="SourceGraphic" in2="BackgroundImageFix" result="shape"/>
<feColorMatrix in="SourceAlpha" type="matrix" values="0 0 0 0 0 0 0 0 0 0 0 0 0 0 0 0 0 0 127 0" result="hardAlpha"/>
<feOffset dx="-6" dy="-6"/>
<feGaussianBlur stdDeviation="4"/>
<feComposite in2="hardAlpha" operator="arithmetic" k2="-1" k3="1"/>
<feColorMatrix type="matrix" values="0 0 0 0 0 0 0 0 0 0 0 0 0 0 0 0 0 0 0.2 0"/>
<feBlend mode="normal" in2="shape" result="effect1_innerShadow_7_953"/>
<feColorMatrix in="SourceAlpha" type="matrix" values="0 0 0 0 0 0 0 0 0 0 0 0 0 0 0 0 0 0 127 0" result="hardAlpha"/>
<feOffset dx="6" dy="6"/>
<feGaussianBlur stdDeviation="2"/>
<feComposite in2="hardAlpha" operator="arithmetic" k2="-1" k3="1"/>
<feColorMatrix type="matrix" values="0 0 0 0 1 0 0 0 0 1 0 0 0 0 1 0 0 0 0.25 0"/>
<feBlend mode="normal" in2="effect1_innerShadow_7_953" result="effect2_innerShadow_7_953"/>
</filter>
<linearGradient id="paint0_linear_7_953" x1="299" y1="439.333" x2="299" y2="215.333" gradientUnits="userSpaceOnUse">
<stop stop-color="#F1C453"/>
<stop offset="1" stop-color="#8872F9"/>
</linearGradient>
</defs>
</svg>
