<svg width="15" height="17" viewBox="0 0 15 17" fill="none" xmlns="http://www.w3.org/2000/svg">
<path d="M3.80372 16.0333V15.5293L4.76372 15.3373C5.43572 15.1933 5.77172 14.8013 5.77172 14.1613V7.60932C5.77172 6.48932 5.77172 5.36932 5.77172 4.24932C5.77172 3.12932 5.76372 2.00932 5.74772 0.889324H3.85172C3.33972 0.889324 2.96372 1.02532 2.72372 1.29732C2.48372 1.56932 2.24372 1.95332 2.00372 2.44932L1.16372 4.22532H0.491719L0.611719 0.169325H14.3877L14.5077 4.22532H13.8357L12.9957 2.44932C12.7557 1.95332 12.5157 1.56932 12.2757 1.29732C12.0357 1.02532 11.6597 0.889324 11.1477 0.889324H9.22772V14.1613C9.22772 14.8173 9.56372 15.2093 10.2357 15.3373L11.2197 15.5293V16.0333H3.80372Z" fill="#555555"/>
</svg>
